<svg xmlns="http://www.w3.org/2000/svg" width="312" height="256"  xmlns:v="https://vecta.io/nano"><path d="M132.644 254.833c.228-.092.602-.092.83 0s.042.167-.415.167-.643-.075-.415-.167zm36.941-17.132c0-.069.261-.33.581-.58.527-.412.538-.4.125.125-.434.552-.706.727-.706.455zm98.91-162.451c-.413-.525-.401-.537.125-.125.553.433.729.705.456.705-.069 0-.33-.261-.581-.58zm-45.449-48.947l1.97-1.822c.091 0-.646.82-1.638 1.822l-1.97 1.822c-.091 0 .646-.82 1.638-1.822z" fill="#d0d0d0"/><path d="M171.079 236.169c.331-.364.676-.663.767-.663s-.104.298-.435.663-.676.663-.767.663.104-.298.435-.663zm1.162-1.119c0-.069.261-.33.581-.58.527-.412.538-.4.125.125-.434.552-.706.727-.706.455zm-23.908-8.945c0-.069.261-.33.581-.58.527-.412.538-.4.125.125-.434.552-.706.727-.706.455zM310.761 38.063c0-.456.075-.642.167-.414a1.28 1.28 0 0 1 0 .828c-.092.228-.167.041-.167-.414z" fill="#b9b9b9"/><path d="M161.642 83.255c.016-.386.095-.464.201-.2.096.239.084.525-.026.635s-.189-.086-.174-.435zm2.962-7.551c0-.069.261-.33.581-.58.527-.412.538-.4.125.125-.434.552-.706.727-.706.455zm146.131-38.828c.016-.386.095-.464.201-.2.096.239.084.525-.026.635s-.189-.086-.174-.435z" fill="#a3a3a3"/><path d="M125.089 220.433c.429-.456.855-.828.946-.828s-.185.373-.614.828-.855.828-.946.828.185-.373.614-.828zm6.444-25.426l-.633-.745.747.631c.702.593.898.86.633.86-.063 0-.399-.335-.747-.745zM268.205 91.606c0-.069.261-.33.581-.58.527-.412.538-.4.125.125-.434.552-.706.727-.706.455zm-95.694-19.647c.24-.096.526-.084.636.026s-.086.188-.436.174c-.387-.016-.466-.094-.201-.2zm88.327 0c.24-.096.526-.084.636.026s-.086.188-.436.174c-.387-.016-.466-.094-.201-.2zm29.04-5.966c.323-.084.771-.078.996.012s-.04.159-.587.153-.732-.081-.409-.165zm20.856-30.11c.016-.386.095-.464.201-.2.096.239.084.525-.026.635s-.189-.086-.174-.435zm-92.006-4.901c0-.069.261-.33.581-.58.527-.412.538-.4.125.125-.434.552-.706.727-.706.455zm58.691-7.737c.776-.07 2.046-.07 2.822 0s.141.127-1.411.127-2.187-.057-1.411-.127zm-3.3-22.18c.24-.096.526-.084.636.026s-.086.188-.436.174c-.387-.016-.466-.094-.201-.2z" fill="#8c8c8c"/><path d="M178.301 71.937c2.876-.055 7.583-.055 10.46 0s.523.1-5.23.1-8.106-.045-5.23-.1zm70.083 0a201.11 201.11 0 0 1 8.301 0c2.227.057.313.104-4.253.104s-6.388-.047-4.048-.104z" fill="#606060"/><path d="M106.826 195.628c0-.069.261-.33.581-.58.527-.412.538-.4.125.125-.434.552-.706.727-.706.455z" fill="#494949"/><path d="M127.691 254.233c-13.434-2.196-24.162-11.955-27.507-25.023-2.358-9.215-1.155-19.684 3.254-28.322 1.909-3.739 5.514-7.524 8.495-8.919 5.02-2.349 10.267-2.3 15.348.143 7.282 3.502 10.886 12.04 8.129 19.26-1.019 2.668-2.86 4.592-5.914 6.181-4.612 2.399-6.523 4.674-7.525 8.96-1.154 4.934.895 6.343 9.224 6.343 11.657 0 17.974-4.618 24.7-18.056 3.344-6.681 4.171-9.652 18.156-65.261l13.661-54.222c.149-.507-.582-.566-8.401-.682-10.008-.149-10.65-.295-13.693-3.105-2.694-2.489-3.494-4.372-3.5-8.246-.004-2.593.115-3.225.915-4.85 1.073-2.181 3.298-4.352 5.497-5.366 1.486-.685 2.066-.72 13.529-.814l11.977-.098 1.426-3.546c6.385-15.882 16.07-30.397 28.559-42.803C239.327 10.602 254.609 3.01 273.352 1.3c10.186-.93 19.996 2.579 26.976 9.649 4.194 4.248 6.759 8.331 8.52 13.565 3.37 10.017 1.988 23.335-3.363 32.4-5.985 10.14-18.829 12.031-27.054 3.983-3.772-3.691-5.807-9.233-4.951-13.486.891-4.429 2.982-7.103 7.163-9.164 4.296-2.118 6.814-5.636 7.362-10.283.204-1.731.167-1.85-.918-2.932-1.494-1.491-4.552-2.047-9.75-1.772-7.112.376-11.587 2.302-16.271 7.001-1.644 1.649-3.484 3.843-4.09 4.874-2.652 4.514-6.496 13.925-9.247 22.64-1.228 3.89-3.759 13.308-3.762 13.997-.001.321 2.066.414 9.236.414 10.625 0 11.64.171 14.427 2.433 1.216.987 2.085 2.087 2.891 3.662 1.018 1.986 1.154 2.55 1.157 4.787.008 4.855-2.102 8.285-6.392 10.393l-2.212 1.087-25.91.331-9.65 31.306-14.272 43.895c-6.837 16.959-16.586 34.693-26.235 47.722-6.56 8.859-16.924 19.957-23.068 24.703-11.855 9.158-25.319 13.515-36.249 11.728zm-46.067-64.398c-20.188-1.422-37.593-11.734-46.231-27.392-1.844-3.342-2.747-4.527-3.85-5.051-1.205-.573-3.683-.629-7.424-.17-3.414.419-12.64-.089-16.717-.92-2.859-.583-5.838-1.557-6.379-2.085-.382-.372 4.059-1.972 7.434-2.677 3.911-.818 8.663-1.409 15.062-1.877l5.186-.378-.192-1.283c-.106-.706-.789-3.738-1.518-6.738-2.179-8.965-2.846-14.922-2.846-25.408 0-9.816.781-16.897 2.703-24.507C32.667 68.33 45.885 53.146 67.11 45.106 76.532 41.537 85.448 40 96.736 40c9.822 0 16.299.925 23.876 3.41 7.511 2.463 13.418 5.991 18.5 11.049 7.944 7.907 11.459 16.962 11.459 29.515 0 7.352-.86 12.003-3.44 18.608-2.093 5.356-4.828 9.42-9.479 14.079-8.214 8.228-20.758 15.247-42.861 23.98-8.688 3.433-10.444 3.852-12.353 2.945-1.902-.904-2.397-2.172-3.044-7.799-.582-5.06-1.059-15.249-1.06-22.612-.005-20.837 3.196-34.603 10.393-44.729 2.372-3.338 6.566-7.462 9.899-9.736 1.533-1.046 2.734-1.956 2.667-2.022-.144-.144-2.77.758-4.854 1.666-4.19 1.827-9.317 6.275-12.713 11.031-3.9 5.461-7.517 14.569-9.272 23.344-1.551 7.757-1.855 10.936-2.098 21.942-.248 11.221-.371 12.137-2.097 15.558-.982 1.947-3.286 4.468-5.41 5.921-5.414 3.701-16.799 7.965-30.658 11.479l-5.199 1.375c-.082.062 2.816 7.663 3.091 8.109.021.035 5.352-.868 11.847-2.006 10.24-1.793 13.053-2.41 21.184-4.646 5.157-1.418 9.507-2.535 9.666-2.482s.602.991.984 2.085c1.064 3.046 2.717 5.539 5.536 8.345 2.032 2.022 3.099 2.817 5.111 3.809 3.72 1.833 5.933 2.295 10.923 2.284 4.678-.014 8.024-.596 12.819-2.244 7.951-2.731 17.724-8.302 23.091-13.161 5.477-4.959 8.789-7.17 11.372-7.594 2.703-.443 5.026 1.836 6.029 5.916.429 1.744.452 2.381.156 4.286-1.54 9.913-12.443 21.265-27.843 28.986-13.93 6.984-27.95 10.085-41.335 9.142zm-27.46-67.887c4.1-1.642 4.945-7.863 1.532-11.28-2.12-2.122-5.45-2.627-8.366-1.268-5.508 2.567-4.057 11.508 2.125 13.091 1.134.29 3.231.049 4.709-.543z" fill="#333"/></svg>