<svg xmlns="http://www.w3.org/2000/svg" width="2048" height="512">
    <circle cx="256" cy="796" r="256" transform="matrix(0 1 1 0 0 0)" fill="#324a5e"/>
    <path d="M889.934 421.694H650.463l57.247-118.123h239.874z" fill="#84dbff"/>
    <path d="M728.674 303.572h6.047l-7.257 14.917h70.551l7.257-14.917h6.047l-10.079 20.964h-76.598l-34.268 70.551h70.551l17.335-35.074h5.644l-17.335 35.074h32.655l44.346-91.515h6.047l-7.257 14.917h70.551l7.257-14.917h6.047l-47.572 97.562H681.102zm147.15 91.112l34.671-70.148h-70.551l-34.268 70.551h70.148z"
          fill="#fff"/>
    <path d="M947.584 90.306L884.29 201.172H644.416L707.71 90.306z" fill="#84dbff"/>
    <path d="M760.523 184.239l3.628-6.047h10.079l35.074-60.876h-89.902l-34.671 60.876h43.943l-3.628 6.047h-43.943l-9.676 16.932h-6.047l51.603-89.902h197.543l-51.2 89.902h-6.047l9.676-16.932h-43.943l3.225-6.047h43.943l35.074-60.876h-89.902l-35.074 60.876h10.482l-3.225 6.047z"
          fill="#fff"/>
    <path d="M947.584 303.572H707.71l-63.294-103.206H884.29z" fill="#54c0eb"/>
    <path d="M301.2 377.6L246.8 344v-70l54.4 33.6v-6l-60.4-37.2v76l-42-25.6v6l102.4 62.8zm-78.4-232.4v76l78.4 48v-6l-72.8-44.4v-70l72.8 44.4v-6l-102.4-62.8v6z"
          transform="matrix(0 1.007874 1.007874 0 539.99992 0)" fill="#e6e9ee"/>
    <text xml:space="preserve" x="35.677" y="350.521" font-size="266.667" font-family="Tibetan Machine Uni" fill="#000"><tspan x="35.677" y="350.521">Site</tspan></text>
    <text xml:space="preserve" x="1051.406" y="350.781" font-size="266.667" font-family="Tibetan Machine Uni" fill="#000"><tspan x="1051.406" y="350.781">Builder</tspan></text>
</svg>