<?xml version="1.0" encoding="UTF-8" standalone="no"?>
<svg
        xmlns:dc="http://purl.org/dc/elements/1.1/"
        xmlns:cc="http://creativecommons.org/ns#"
        xmlns:rdf="http://www.w3.org/1999/02/22-rdf-syntax-ns#"
        xmlns="http://www.w3.org/2000/svg"
        xmlns:sodipodi="http://sodipodi.sourceforge.net/DTD/sodipodi-0.dtd"
        xmlns:inkscape="http://www.inkscape.org/namespaces/inkscape"
        version="1.1"
        id="Layer_1"
        x="0px"
        y="0px"
        viewBox="0 0 508 508"
        style="enable-background:new 0 0 508 508;"
        xml:space="preserve"
        sodipodi:docname="SiteBuilder.svg"
        inkscape:version="1.0.1 (3bc2e813f5, 2020-09-07)"><metadata
   id="metadata25"><rdf:RDF><cc:Work
       rdf:about=""><dc:format>image/svg+xml</dc:format><dc:type
         rdf:resource="http://purl.org/dc/dcmitype/StillImage" /></cc:Work></rdf:RDF></metadata><defs
   id="defs23" /><sodipodi:namedview
   pagecolor="#ffffff"
   bordercolor="#666666"
   borderopacity="1"
   objecttolerance="10"
   gridtolerance="10"
   guidetolerance="10"
   inkscape:pageopacity="0"
   inkscape:pageshadow="2"
   inkscape:window-width="1920"
   inkscape:window-height="1014"
   id="namedview21"
   showgrid="false"
   inkscape:zoom="1.403747"
   inkscape:cx="224.45699"
   inkscape:cy="255.25345"
   inkscape:window-x="0"
   inkscape:window-y="0"
   inkscape:window-maximized="1"
   inkscape:current-layer="Layer_1" />
    <circle
   style="fill:#324a5e"
   cx="254"
   cy="254"
   id="circle2"
   r="254"
   transform="matrix(0,1,1,0,0,0)" />
    <polygon
   style="fill:#84dbff"
   points="418.4,347.2 418.4,109.6 301.2,166.4 301.2,404.4 "
   id="polygon4"
   transform="matrix(0,1,1,0,0,0)" />
    <path
   style="fill:#ffffff"
   d="m 187.2,301.2 h 6 L 186,316 h 70 l 7.2,-14.8 h 6 l -10,20.8 h -76 l -34,70 h 70 l 17.2,-34.8 H 242 L 224.8,392 h 32.4 l 44,-90.8 h 6 L 300,316 h 70 l 7.2,-14.8 h 6 L 336,398 H 140 Z m 146,90.4 34.4,-69.6 h -70 l -34,70 h 69.6 z"
   id="path6" />
    <polygon
   style="fill:#84dbff"
   points="89.6,404.4 199.6,341.6 199.6,103.6 89.6,166.4 "
   id="polygon8"
   transform="matrix(0,1,1,0,0,0)" />
    <polygon
   style="fill:#ffffff"
   points="182.8,280.8 176.8,284 176.8,327.6 116.4,362.4 116.4,273.2 176.8,238.4 176.8,248.8 182.8,245.6 182.8,218.8 176.8,222.4 176.8,232.4 116.4,267.2 116.4,178 176.8,143.6 176.8,187.2 182.8,183.6 182.8,140 199.6,130.4 199.6,124.4 110.4,175.6 110.4,371.6 199.6,320.8 199.6,314.8 182.8,324.4 "
   id="polygon10"
   transform="matrix(0,1,1,0,0,0)" />
    <polygon
   style="fill:#54c0eb"
   points="301.2,404.4 301.2,166.4 198.8,103.6 198.8,341.6 "
   id="polygon12"
   transform="matrix(0,1,1,0,0,0)" />
    <g
   id="g18"
   transform="matrix(0,1,1,0,0,0)">
	    <polygon
   style="fill:#e6e9ee"
   points="198.8,320.8 301.2,383.6 301.2,377.6 246.8,344 246.8,274 301.2,307.6 301.2,301.6 240.8,264.4 240.8,340.4 198.8,314.8 "
   id="polygon14" />
        <polygon
   style="fill:#e6e9ee"
   points="198.8,124.4 198.8,130.4 222.8,145.2 222.8,221.2 301.2,269.2 301.2,263.2 228.4,218.8 228.4,148.8 301.2,193.2 301.2,187.2 "
   id="polygon16" />
    </g>
</svg>
