<?xml version="1.0" encoding="UTF-8" standalone="no"?>
<svg
   xmlns:dc="http://purl.org/dc/elements/1.1/"
   xmlns:cc="http://creativecommons.org/ns#"
   xmlns:rdf="http://www.w3.org/1999/02/22-rdf-syntax-ns#"
   xmlns:svg="http://www.w3.org/2000/svg"
   xmlns="http://www.w3.org/2000/svg"
   xmlns:sodipodi="http://sodipodi.sourceforge.net/DTD/sodipodi-0.dtd"
   xmlns:inkscape="http://www.inkscape.org/namespaces/inkscape"
   version="1.1"
   id="Layer_1"
   x="0px"
   y="0px"
   viewBox="0 0 2048 512"
   xml:space="preserve"
   sodipodi:docname="SiteBuilder.svg"
   inkscape:version="1.0.1 (3bc2e813f5, 2020-09-07)"
   width="2048"
   height="512"
   inkscape:export-filename="/home/alpin/Documents/JetBrains/PhpStorm/SiteBuilder/SiteBuilder.png"
   inkscape:export-xdpi="48"
   inkscape:export-ydpi="48"><title
   id="title19">The SiteBuilder Logo</title><metadata
   id="metadata25"><rdf:RDF><cc:Work
       rdf:about=""><dc:format>image/svg+xml</dc:format><dc:type
         rdf:resource="http://purl.org/dc/dcmitype/StillImage" /><dc:title>The SiteBuilder Logo</dc:title><dc:date>31.01.2021</dc:date><dc:creator><cc:Agent><dc:title>Alpin Gencer</dc:title></cc:Agent></dc:creator></cc:Work></rdf:RDF></metadata><defs
   id="defs23" /><sodipodi:namedview
   pagecolor="#ffffff"
   bordercolor="#666666"
   borderopacity="1"
   objecttolerance="10"
   gridtolerance="10"
   guidetolerance="10"
   inkscape:pageopacity="0"
   inkscape:pageshadow="2"
   inkscape:window-width="1920"
   inkscape:window-height="1014"
   id="namedview21"
   showgrid="false"
   inkscape:zoom="0.6251321"
   inkscape:cx="908.3138"
   inkscape:cy="153.23391"
   inkscape:window-x="0"
   inkscape:window-y="0"
   inkscape:window-maximized="1"
   inkscape:current-layer="Layer_1"
   inkscape:document-rotation="0"
   scale-x="1"
   fit-margin-top="0"
   fit-margin-left="0"
   fit-margin-right="0"
   fit-margin-bottom="0" />
    <circle
   style="fill:#324a5e;stroke-width:1.00787"
   cx="256"
   cy="256"
   id="circle2"
   r="256"
   transform="matrix(0,1,1,0,0,0)" />
    <polygon
   style="fill:#84dbff"
   points="418.4,109.6 301.2,166.4 301.2,404.4 418.4,347.2 "
   id="polygon4"
   transform="matrix(0,1.007874,1.007874,0,0,0)" />
    <path
   style="fill:#ffffff;stroke-width:1.00787"
   d="m 188.67402,303.57165 h 6.04724 l -7.25669,14.91654 h 70.55118 l 7.25669,-14.91654 h 6.04725 l -10.07875,20.96378 h -76.59842 l -34.26772,70.55118 h 70.55118 l 17.33544,-35.07401 h 5.64409 l -17.33543,35.07401 h 32.65512 l 44.34645,-91.51496 h 6.04725 l -7.2567,14.91654 h 70.55119 l 7.25669,-14.91654 h 6.04724 l -47.57165,97.56221 H 141.10236 Z m 147.1496,91.11181 34.67087,-70.14803 h -70.55118 l -34.26772,70.55118 h 70.14803 z"
   id="path6" />
    <polygon
   style="fill:#84dbff"
   points="199.6,341.6 199.6,103.6 89.6,166.4 89.6,404.4 "
   id="polygon8"
   transform="matrix(0,1.007874,1.007874,0,0,0)" />
    <polygon
   style="fill:#ffffff"
   points="176.8,238.4 176.8,248.8 182.8,245.6 182.8,218.8 176.8,222.4 176.8,232.4 116.4,267.2 116.4,178 176.8,143.6 176.8,187.2 182.8,183.6 182.8,140 199.6,130.4 199.6,124.4 110.4,175.6 110.4,371.6 199.6,320.8 199.6,314.8 182.8,324.4 182.8,280.8 176.8,284 176.8,327.6 116.4,362.4 116.4,273.2 "
   id="polygon10"
   transform="matrix(0,1.007874,1.007874,0,0,0)" />
    <polygon
   style="fill:#54c0eb"
   points="301.2,166.4 198.8,103.6 198.8,341.6 301.2,404.4 "
   id="polygon12"
   transform="matrix(0,1.007874,1.007874,0,0,0)" />
    <g
   id="g18"
   transform="matrix(0,1.007874,1.007874,0,0,0)">
	    <polygon
   style="fill:#e6e9ee"
   points="301.2,307.6 301.2,301.6 240.8,264.4 240.8,340.4 198.8,314.8 198.8,320.8 301.2,383.6 301.2,377.6 246.8,344 246.8,274 "
   id="polygon14" />
        <polygon
   style="fill:#e6e9ee"
   points="301.2,263.2 228.4,218.8 228.4,148.8 301.2,193.2 301.2,187.2 198.8,124.4 198.8,130.4 222.8,145.2 222.8,221.2 301.2,269.2 "
   id="polygon16" />
    </g>
<text
   xml:space="preserve"
   style="font-style:normal;font-variant:normal;font-weight:normal;font-stretch:normal;font-size:266.667px;line-height:1.25;font-family:'Tibetan Machine Uni';-inkscape-font-specification:'Tibetan Machine Uni, Normal';font-variant-ligatures:normal;font-variant-caps:normal;font-variant-numeric:normal;font-variant-east-asian:normal;fill:#000000;fill-opacity:1;stroke:none"
   x="553.67706"
   y="354.18201"
   id="text17"><tspan
     sodipodi:role="line"
     id="tspan15"
     x="553.67706"
     y="354.18201"
     style="font-style:normal;font-variant:normal;font-weight:normal;font-stretch:normal;font-size:266.667px;font-family:'Tibetan Machine Uni';-inkscape-font-specification:'Tibetan Machine Uni, Normal';font-variant-ligatures:normal;font-variant-caps:normal;font-variant-numeric:normal;font-variant-east-asian:normal">SiteBuilder</tspan></text></svg>
